<?xml version="1.0" encoding="UTF-8"?>
<svg id="Calque_1" data-name="Calque 1" xmlns="http://www.w3.org/2000/svg" xmlns:xlink="http://www.w3.org/1999/xlink" viewBox="0 0 547 445">
  <defs>
    <style>
      .cls-1 {
        fill: #fff;
      }

      .cls-2 {
        fill: url(#_30_6_ppp);
      }

      .cls-3 {
        fill: none;
      }
    </style>
    <pattern id="_30_6_ppp" data-name="30 % 6 ppp" x="0" y="0" width="48" height="48" patternTransform="translate(-329 -233)" patternUnits="userSpaceOnUse" viewBox="0 0 48 48">
      <g>
        <rect class="cls-3" width="48" height="48"/>
        <g>
          <circle class="cls-1" cx="24" cy="48" r="3.6"/>
          <circle class="cls-1" cx="48" cy="48" r="3.6"/>
          <circle class="cls-1" cx="24" cy="24" r="3.6"/>
          <circle class="cls-1" cx="48" cy="24" r="3.6"/>
          <circle class="cls-1" cx="36" cy="36" r="3.6"/>
          <circle class="cls-1" cx="12" cy="36" r="3.6"/>
          <circle class="cls-1" cx="36" cy="12" r="3.6"/>
          <circle class="cls-1" cx="12" cy="12" r="3.6"/>
        </g>
        <g>
          <circle class="cls-1" cx="0" cy="48" r="3.6"/>
          <circle class="cls-1" cx="0" cy="24" r="3.6"/>
        </g>
        <g>
          <circle class="cls-1" cx="24" cy="0" r="3.6"/>
          <circle class="cls-1" cx="48" cy="0" r="3.6"/>
        </g>
        <circle class="cls-1" cx="0" cy="0" r="3.6"/>
      </g>
    </pattern>
  </defs>
  <g>
    <rect class="cls-2" x=".5" y=".5" width="546" height="56" rx="11.5" ry="11.5"/>
    <path class="cls-1" d="M535,1c6.07,0,11,4.93,11,11V45c0,6.07-4.93,11-11,11H12c-6.07,0-11-4.93-11-11V12C1,5.93,5.93,1,12,1H535m0-1H12C5.4,0,0,5.4,0,12V45c0,6.6,5.4,12,12,12H535c6.6,0,12-5.4,12-12V12c0-6.6-5.4-12-12-12h0Z"/>
  </g>
  <g>
    <rect class="cls-2" x=".5" y="194.5" width="546" height="56" rx="11.5" ry="11.5"/>
    <path class="cls-1" d="M535,195c6.07,0,11,4.93,11,11v33c0,6.07-4.93,11-11,11H12c-6.07,0-11-4.93-11-11v-33c0-6.07,4.93-11,11-11H535m0-1H12c-6.6,0-12,5.4-12,12v33c0,6.6,5.4,12,12,12H535c6.6,0,12-5.4,12-12v-33c0-6.6-5.4-12-12-12h0Z"/>
  </g>
  <g>
    <rect class="cls-2" x=".5" y="388.5" width="546" height="56" rx="11.5" ry="11.5"/>
    <path class="cls-1" d="M535,389c6.07,0,11,4.93,11,11v33c0,6.07-4.93,11-11,11H12c-6.07,0-11-4.93-11-11v-33c0-6.07,4.93-11,11-11H535m0-1H12c-6.6,0-12,5.4-12,12v33c0,6.6,5.4,12,12,12H535c6.6,0,12-5.4,12-12v-33c0-6.6-5.4-12-12-12h0Z"/>
  </g>
</svg>