<svg xmlns="http://www.w3.org/2000/svg" viewBox="0 0 32.26 40" style="enable-background:new 0 0 32.26 40" xml:space="preserve"><path style="fill:#fff" d="M30.32 34.69v-1.63l1.22-2.44c.15-.29.05-.65-.22-.83l-1.94-1.29a.656.656 0 0 0-.65-.04l-1 .5-.4-.2 3.37-13.92h.25c.71 0 1.29-.58 1.29-1.29v-1.29c0-.48-.26-.89-.65-1.11l.63-2.61-1.25-.3-.66 2.73h-.65c-.04 0-.07.01-.1.02v-.01l-3.54.59-1.89-1.89h.38c.24 0 .47-.14.58-.36l.6-1.2.57-.57c.25-.25.25-.66 0-.91l-.19-.19.83-.83c.25-.25.25-.66 0-.91l-1.94-1.94a.66.66 0 0 0-.46-.19h-1.29v-.64c0-.22-.11-.42-.29-.54L21.57.5a2.82 2.82 0 0 0-1.62-.5h-.22a2.946 2.946 0 0 0-2.95 2.95v1.56h-.65c-.28 0-.52.18-.61.44l-2.48 7.43a2.697 2.697 0 0 0 1.9 3.47l.41.1c-.37.63-.66 1.31-.84 2.03-.22.88-.28 1.79-.18 2.69l.49 4.43-1.77 5.89-.03-.01a.635.635 0 0 0-.75.48l-.65 2.58c-.05.22.01.45.17.61l.65.65c.05.05.11.09.17.12l.14.07h-1.68l-1.84-.61a.645.645 0 0 0-.74.25L7.2 37.07c-.07.11-.11.23-.11.36v1.94c.01.34.3.63.65.63h4.52c.06 0 .12-.01.18-.03l4.15-1.19 1.02 1.02a.624.624 0 0 0 .74.13l1.15-.58h1.78c.23 0 .44-.12.55-.31l1.63-2.71.4.2v2.18c0 .24.14.47.36.58l1.29.65c.09.04.19.07.29.07h1.94c.12 0 .23-.03.33-.09l3.23-1.94c.29-.17.4-.54.25-.84l-1.23-2.45zm-4.87-6.88a.669.669 0 0 0-.46-.04l-.38-1.15.36-.36c.13-.13.2-.32.18-.5l2.09-2.93c.32-.45.49-.98.49-1.53 0-1.04-.62-1.99-1.57-2.41l-3.96-1.76 1.29-2.16 1.44.48c.09.03.19.04.3.03l4.12-.59-3.22 13.27-.68-.35zm-7.73 7.67L16.49 34l.27-1.64a.617.617 0 0 0-.33-.66l2.22-4.99c.02-.03.03-.07.04-.11l1.15-4.58 2.54.42-.72 2.15c-.04.02-.08.03-.12.06-.16.12-.25.31-.25.51v.25l-.93.47a.63.63 0 0 0-.36.57v1.29c0 .24.14.47.36.58l1.2.6L22.64 30l-.4.4-1.8.6c-.26.09-.44.33-.44.61v1.54l-.93.47c-.15.08-.27.21-.32.37l-.5 1.49h-.53zm5.83-6.39-1.16-1.16a.657.657 0 0 0-.17-.12l-.93-.47v-.49l.93-.47c.16-.08.28-.23.33-.4l.74.18a.64.64 0 0 0-.03.49l.68 2.04-.39.4zm6.77-15.54v-1.29h.65v1.29h-.65zm-4.97-.84c.15.15.36.22.56.18l3.12-.52v1.26l-3.81.54-1.69-.56-2.5-1.87-.77 1.03 2.12 1.59-1.5 2.5-2.18.55-2.4-.48c.16-.31.34-.61.55-.89l1.09-1.45c.03-.04.06-.09.08-.13l1.84-4.3.79-.39 1 .5c.09.05.19.07.29.07h1.02l2.39 2.37zM24.71 6c-.25.25-.25.66 0 .91l.19.19-.19.19c-.05.05-.09.11-.12.17l-.47.93h-.89c-.36 0-.65.29-.65.65h-.49l-.8-.4v-.55l1.65-1.1c.18-.12.29-.32.29-.54v-.76l2.23-.45-.75.76zm-.21-1.88-2.04.41c-.3.06-.52.32-.52.63v.95l-.8.53-.44-.88.46-1.38 1.53-.51h1.56l.25.25zm-6.44-1.16c0-.18.03-.36.09-.53.23-.68.86-1.14 1.58-1.14h.22c.33 0 .65.1.92.28l1.07.71v.48l-1.49.5c-.19.06-.34.22-.41.41l-.44 1.32-1.32-.44a.747.747 0 0 0-.2-.03V2.96zm-.1 2.85 1.58.53.46.91v.31l-3.68-.92.28-.83h1.36zm-3.77 7.43c0-.15.02-.3.07-.44l1.64-4.92 3.75.94-.59.3c-.14.07-.24.18-.3.32l-1.91 4.45-.71.95-.88-.22c-.63-.18-1.07-.74-1.07-1.38zm1.91 12.11c.03-.08.03-.17.02-.26l-.51-4.56c-.08-.75-.03-1.5.15-2.23.01-.05.03-.1.05-.15l2.77.55c.04.01.08.01.13.01s.11-.01.16-.02l2.37-.59 4.42 1.96a1.346 1.346 0 0 1 .55 2.01l-2.11 2.95-1.12-.28.87-2.61a.64.64 0 0 0-.51-.84l-3.87-.65a.636.636 0 0 0-.73.48l-1.28 5.11-2.3 5.17-.82-.16 1.76-5.89zm-1.33 9.85a.627.627 0 0 0-.29-.29l-1.2-.6-.31-.31.41-1.63 2.01.4-.22 1.32c-.03.19.02.37.14.52l.73.88h-1.13l-.14-.29zm14.33-.07 1.02 2.05-2.56 1.54h-1.6l-.8-.4v-2.18c0-.24-.14-.47-.36-.58l-1.29-.65a.644.644 0 0 0-.84.25l-1.75 2.91h-1.57c-.1 0-.2.02-.29.07l-.87.44-.96-.96a.62.62 0 0 0-.63-.16l-4.43 1.27H8.39v-1.09l.91-1.36 1.47.49c.07.02.14.03.2.03h7.74c.28 0 .52-.18.61-.44l.56-1.68 1.05-.53c.22-.11.36-.33.36-.58V32.1l1.49-.5c.09-.03.18-.09.25-.16l2.25-2.25 2.16 1.08c.18.09.4.09.58 0l.96-.48 1.15.77-1.04 2.07c-.05.09-.07.19-.07.29v1.94c.01.08.04.18.08.27z"/><path style="fill:#47babd" d="M12.9 24.52c0-1.56-1.11-2.86-2.58-3.16v-.07a3.88 3.88 0 0 0-3.87-3.87 3.88 3.88 0 0 0-3.87 3.87c0 .02 0 .04.01.06-1.48.3-2.59 1.61-2.59 3.17 0 1.78 1.45 3.23 3.23 3.23h6.45a3.24 3.24 0 0 0 3.22-3.23zm-11.61 0c0-.93.66-1.71 1.53-1.89.13.35.3.68.53.99l1.03-.77c-.34-.45-.52-.98-.52-1.55 0-1.42 1.16-2.58 2.58-2.58 1.42 0 2.58 1.16 2.58 2.58 0 .03-.01.05-.01.07-.89.19-1.68.74-2.14 1.54l1.13.64c.35-.6.99-.97 1.68-.97 1.07 0 1.94.87 1.94 1.94s-.87 1.94-1.94 1.94H3.23a1.955 1.955 0 0 1-1.94-1.94z"/></svg>