<svg xmlns="http://www.w3.org/2000/svg" viewBox="0 0 37.62 37.48" style="enable-background:new 0 0 37.62 37.48" xml:space="preserve"><path style="fill:#fff" d="m15.88 18.03-5.46 7.46-3.32-1.1a.649.649 0 0 0-.39 0c-.13.04-.24.12-.32.23L.56 32.75c-.37.51-.56 1.12-.56 1.74v2.37c0 .17.07.32.18.44.12.12.28.18.44.18h7.52c.11 0 .21-.03.31-.08a.69.69 0 0 0 .23-.22l1.88-3.12a.636.636 0 0 0-.11-.78.632.632 0 0 0-.78-.07l-1.52 1.01c-.13.09-1.09.13-1.09.13-.15 0-.29-.04-.41-.12s-.23-.18-.29-.31-.1-.27-.09-.42c.01-.15.06-.28.14-.4l2.06-2.72c.58.33 1.23.51 1.9.51.3 0 1.7-.31 1.7-.31l-.3-1.21-.79.2c-.59.15-1.2.08-1.74-.2l.44-.59c1.01.14 2.04.04 3-.28.97-.32 1.84-.87 2.56-1.59l.25-.25c.07-.07.12-.16.15-.25s.04-.19.02-.29a.644.644 0 0 0-.11-.27.794.794 0 0 0-.22-.19l-1.25-.62c-.12-.06-.25-.08-.38-.06-.13.02-.25.08-.34.18-.21.21-.46.38-.74.49-.28.11-.57.17-.87.16l5.16-7.06c3.1-4.34 7.6-7.51 12.74-8.98l-.34-1.2a24.975 24.975 0 0 0-13.43 9.46zm-1.99 8.32.08.04c-.61.5-1.33.86-2.09 1.05-.77.19-1.57.21-2.34.05a.69.69 0 0 0-.35.03.58.58 0 0 0-.28.21l-3.5 4.63-.01.01A2.024 2.024 0 0 0 6 35.3c.32.2.69.3 1.07.3 0 0 .98-.02 1.14-.06l-.41.69H3c-.32 0-.64-.09-.91-.25-.27-.17-.5-.41-.64-.69-.15-.29-.21-.61-.19-.93.02-.32.13-.63.32-.89l5.56-7.76 2.35.78 1.17.39c.54.18 1.12.23 1.68.13.57-.08 1.1-.31 1.55-.66z"/><path style="fill:#fff" d="m34.07 11.7.28.28-.42.85c-.04.09-.07.18-.07.28s.02.19.07.28l.49.97-.49.97c-.04.09-.07.18-.07.28s.02.19.07.28l.49.97-.49.97c-.04.09-.07.18-.07.28s.02.19.07.28l.49.97-.49.97c-.04.09-.07.18-.07.28s.02.19.07.28l.5 1-1.36 3.38c-.04.1-.04.21-.01.31.04.1.11.18.2.24a.428.428 0 0 0 .44 0l2.4-1.44c.46-.28.85-.67 1.12-1.14.27-.47.41-1 .41-1.54V5.61a.68.68 0 0 0-.08-.31.69.69 0 0 0-.22-.23l-2.98-1.78-.02-.03c-.4-.8-.98-1.51-1.68-2.07A6.16 6.16 0 0 0 30.26.01l-.3 1.21a4.98 4.98 0 0 1 3.03 2.2l-2.43.97-2.2.49a24.817 24.817 0 0 0-14.8 9.76l-5.9 8.24 1.02.73 5.9-8.24c3.37-4.71 8.38-8.01 14.05-9.27l1.6-.35.48 2.88c.05.31.21.58.46.77l2.9 2.3zm-.27-7.27 2.56 1.53v2.63l-2.39-.48c-.04-.01-2.1-.01-2.1-.01l-.46-2.73 2.39-.94zm2.57 17.26c0 .32-.09.64-.25.92s-.39.52-.67.68l-.32.19.56-1.4a.57.57 0 0 0 .04-.26c0-.09-.03-.17-.07-.25l-.49-.97.49-.97c.04-.09.07-.18.07-.28s-.02-.19-.07-.28l-.49-.97.49-.97c.04-.09.07-.18.07-.28s-.02-.19-.07-.28l-.49-.97.49-.97c.04-.09.07-.18.07-.28s-.02-.19-.07-.28l-.49-.97.49-.97c.06-.12.08-.25.06-.38a.568.568 0 0 0-.18-.34l-.63-.62-.05-.05-1.74-1.39h.66l2.57.51v11.83z"/><path style="fill:#47babd" d="M34.17 7.48c.19 0 .37-.05.52-.16.15-.1.28-.25.35-.42.07-.17.09-.36.05-.54a.984.984 0 0 0-.26-.48.984.984 0 0 0-.48-.26.908.908 0 0 0-.54.05.965.965 0 0 0-.58.87c0 .25.1.49.28.66.17.18.41.28.66.28zM3.45 33.73a.957.957 0 0 0-.87.58c-.07.17-.09.36-.05.54.04.18.13.35.26.48s.3.22.48.26c.18.04.37.02.54-.05a.965.965 0 0 0 .58-.87c0-.25-.1-.49-.28-.66a.907.907 0 0 0-.66-.28z"/></svg>