<?xml version="1.0" encoding="UTF-8"?>
<svg id="Calque_1" data-name="Calque 1" xmlns="http://www.w3.org/2000/svg" viewBox="0 0 878.41 1036.67">
  <defs>
    <style>
      .cls-1 {
        fill: #9880ff;
        stroke: #1d1d1b;
        stroke-miterlimit: 10;
        stroke-width: 8.12px;
      }
    </style>
  </defs>
  <path class="cls-1" d="M830.42,498.62c25.28-45.1,39.72-97.08,39.72-152.45h-.01c0-149.3-104.83-274.12-244.9-304.91l-86.86-6.68c-11.23,.71-22.31,1.99-33.19,3.84V965.39c18.46,3.4,37.5,5.2,56.96,5.2,14.56,0,28.89-1.02,42.92-2.94,152.12-20.92,269.3-151.39,269.3-309.27,0-58.39-16.05-113.01-43.93-159.76Zm-217.66,328.55c-2.22,0-4.43-.09-6.64-.16l1.31-172.55,.99-129.06,.26-35.66,1.06-139.9,1.16-153.43h14.44l-.03-23.98c87.94,10.41,156.16,85.13,156.16,175.86,0,26.18-5.73,51-15.9,73.35-16.56,36.35-45.02,66.09-80.42,84.3,33.51,15.94,60.89,42.62,77.8,75.59h.03s0,0,0,0h0c11.82,23.06,18.54,49.17,18.54,76.87,0,93.21-75.56,168.77-168.77,168.77Z"/>
  <polygon class="cls-1" points="392.01 502.18 391.52 4.06 305.02 4.06 305.16 369.88 91.09 369.88 91.09 54.85 4.06 54.85 4.06 664 91.09 664 91.09 439.49 305.16 439.49 305.16 502.18 305.16 836.12 392.02 836.12 392.02 502.18 392.01 502.18"/>
</svg>