<?xml version="1.0" encoding="UTF-8"?>
<svg id="Calque_1" data-name="Calque 1" xmlns="http://www.w3.org/2000/svg" viewBox="0 0 532.09 458.64">
  <defs>
    <style>
      .cls-1 {
        fill: #ece9ff;
      }
    </style>
  </defs>
  <path class="cls-1" d="M517.5,148.97h-39.76v-50.96c0-24.64-20.16-44.8-44.8-44.8h-170.24l-6.16-19.6C249.82,13.44,231.34,0,210.06,0H123.26c-26.88,0-48.72,21.84-48.72,48.72v28h-29.68c-14,0-27.44,6.72-35.84,17.92C.63,105.84-2.18,120.41,1.74,133.84l57.68,196c5.04,16.24,20.16,28,37.52,28h165.76v85.68c0,8.4,6.72,15.12,15.12,15.12h239.12c8.4,0,15.12-6.72,15.12-15.12V164.08c.55-8.4-6.16-15.12-14.57-15.12h0ZM74.54,272.73L31.42,125.45c-1.12-4.48-.56-8.96,2.24-12.88,2.8-3.92,7.28-6.16,11.76-6.16h29.68v166.32h-.56Zm188.72-108.64v163.52H104.78V48.73c0-10.64,8.4-19.04,19.04-19.04h86.8c8.4,0,15.12,5.04,17.92,12.88l9.52,30.24c2.24,6.16,7.84,10.64,14,10.64h181.44c7.84,0,14.56,6.72,14.56,14.56v50.96h-169.68c-8.4,0-15.12,6.72-15.12,15.12h0Zm239.68,264.32h-209.44V179.21h209.44v249.2Z"/>
  <path class="cls-1" d="M349.5,249.21h96.88c8.4,0,15.12-6.72,15.12-15.12s-6.72-15.12-15.12-15.12h-96.88c-8.4,0-15.12,6.72-15.12,15.12,0,8.4,6.72,15.12,15.12,15.12h0Z"/>
  <path class="cls-1" d="M349.5,318.65h96.88c8.4,0,15.12-6.72,15.12-15.12s-6.72-15.12-15.12-15.12h-96.88c-8.4,0-15.12,6.72-15.12,15.12,0,8.4,6.72,15.12,15.12,15.12h0Z"/>
  <path class="cls-1" d="M349.5,388.09h96.88c8.4,0,15.12-6.72,15.12-15.12s-6.72-15.12-15.12-15.12h-96.88c-8.4,0-15.12,6.72-15.12,15.12,0,8.4,6.72,15.12,15.12,15.12h0Z"/>
</svg>