<?xml version="1.0" encoding="UTF-8"?><svg id="Calque_1" xmlns="http://www.w3.org/2000/svg" xmlns:xlink="http://www.w3.org/1999/xlink" viewBox="0 0 1940.49 1090.88"><defs><style>.cls-1{fill:none;}.cls-2{fill:#fff;}.cls-3{stroke-miterlimit:10;stroke-width:1.33px;}.cls-3,.cls-4{fill:url(#_0___10_ppp);stroke:#fff;}.cls-5{opacity:.3;}.cls-4{stroke-linecap:round;stroke-linejoin:round;stroke-width:0px;}</style><pattern id="_0___10_ppp" x="0" y="0" width="28.8" height="28.8" patternTransform="translate(17.96 -6.45)" patternUnits="userSpaceOnUse" viewBox="0 0 28.8 28.8"><g><rect class="cls-1" x="0" width="28.8" height="28.8"/><g><path class="cls-2" d="M28.8,30.96c1.19,0,2.16-.97,2.16-2.16s-.97-2.16-2.16-2.16-2.16,.97-2.16,2.16,.97,2.16,2.16,2.16Z"/><path class="cls-2" d="M14.4,30.96c1.19,0,2.16-.97,2.16-2.16s-.97-2.16-2.16-2.16-2.16,.97-2.16,2.16,.97,2.16,2.16,2.16Z"/><path class="cls-2" d="M28.8,16.56c1.19,0,2.16-.97,2.16-2.16s-.97-2.16-2.16-2.16-2.16,.97-2.16,2.16,.97,2.16,2.16,2.16Z"/><path class="cls-2" d="M14.4,16.56c1.19,0,2.16-.97,2.16-2.16s-.97-2.16-2.16-2.16-2.16,.97-2.16,2.16,.97,2.16,2.16,2.16Z"/><path class="cls-2" d="M7.2,23.76c1.19,0,2.16-.97,2.16-2.16s-.97-2.16-2.16-2.16-2.16,.97-2.16,2.16,.97,2.16,2.16,2.16Z"/><path class="cls-2" d="M21.6,23.76c1.19,0,2.16-.97,2.16-2.16s-.97-2.16-2.16-2.16-2.16,.97-2.16,2.16,.97,2.16,2.16,2.16Z"/><path class="cls-2" d="M7.2,9.36c1.19,0,2.16-.97,2.16-2.16s-.97-2.16-2.16-2.16-2.16,.97-2.16,2.16,.97,2.16,2.16,2.16Z"/><path class="cls-2" d="M21.6,9.36c1.19,0,2.16-.97,2.16-2.16s-.97-2.16-2.16-2.16-2.16,.97-2.16,2.16,.97,2.16,2.16,2.16Z"/></g><g><path class="cls-2" d="M0,30.96c1.19,0,2.16-.97,2.16-2.16S1.19,26.64,0,26.64s-2.16,.97-2.16,2.16S-1.19,30.96,0,30.96Z"/><path class="cls-2" d="M0,16.56c1.19,0,2.16-.97,2.16-2.16S1.19,12.24,0,12.24s-2.16,.97-2.16,2.16S-1.19,16.56,0,16.56Z"/></g><g><path class="cls-2" d="M28.8,2.16C29.99,2.16,30.96,1.19,30.96,0s-.97-2.16-2.16-2.16S26.64-1.19,26.64,0s.97,2.16,2.16,2.16Z"/><path class="cls-2" d="M14.4,2.16C15.59,2.16,16.56,1.19,16.56,0s-.97-2.16-2.16-2.16S12.24-1.19,12.24,0s.97,2.16,2.16,2.16Z"/></g><path class="cls-2" d="M0,2.16C1.19,2.16,2.16,1.19,2.16,0S1.19-2.16,0-2.16-2.16-1.19-2.16,0-1.19,2.16,0,2.16Z"/></g></pattern></defs><g class="cls-5"><path class="cls-1" d="M1920.91,23.55V9.85h-24.71c8.62,3.56,16.91,8.12,24.71,13.7Z"/><polygon class="cls-1" points="1920.9 9.85 1940.49 9.85 1920.9 0 1920.9 9.85"/><polygon class="cls-3" points="362.51 801.68 236.65 675.83 203.67 708.81 329.53 834.66 362.51 801.68"/><polygon class="cls-3" points="279.28 822.55 151.63 760.86 138.62 773.87 264.47 899.72 299.71 864.48 279.28 822.55"/><polygon class="cls-3" points="441.19 487.2 420.86 507.53 502.65 548.67 547.47 571.21 563.83 600.36 597.07 567.13 581.85 535.89 454.2 474.19 441.19 487.2"/><path class="cls-4" d="M37.41,890.58c-48.27,48.27-48.27,126.53,0,174.79,10.81,10.81,23.12,19.18,36.26,25.15l32.03-32.03c-14.44-3.41-28.14-10.74-39.41-22-32.32-32.32-32.32-84.72,0-117.05,27.71-27.71,70.16-31.64,102.08-11.84l29.41-29.41c-48.36-35.46-116.66-31.33-160.37,12.38Z"/><path class="cls-4" d="M196.72,937.01c3.95,6.92,6.82,14.29,8.61,21.86l32.03-32.03c-3.05-6.72-6.73-13.23-11.04-19.42l-29.59,29.59Z"/><path class="cls-3" d="M413,751.19c-10.63-3.73-20.6-9.84-29.1-18.34-30.29-30.29-30.29-79.4,0-109.7,7.95-7.95,17.2-13.79,27.07-17.57l-7.9-47.07c-19.21,5.72-37.31,16.16-52.48,31.33-48.69,48.69-48.69,127.63,0,176.32,8.22,8.22,17.3,15.04,26.95,20.49l35.46-35.46Z"/><path class="cls-3" d="M493.6,623.16c8.5,8.5,14.61,18.47,18.34,29.1l35.46-35.46c-5.44-9.65-12.27-18.73-20.49-26.95-23.2-23.2-53.26-35.33-83.65-36.43l6.8,47.85c15.93,2.34,31.28,9.63,43.54,21.89Z"/><polygon class="cls-3" points="750.19 155.52 876.04 281.38 909.02 248.4 783.17 122.54 750.19 155.52"/><polygon class="cls-3" points="685.14 220.58 810.99 346.43 846.22 311.2 825.8 269.26 698.14 207.57 685.14 220.58"/><polygon class="cls-3" points="1093.99 17.92 1110.35 47.07 1143.58 13.84 1141.64 9.85 1077.94 9.85 1093.99 17.92"/><path class="cls-4" d="M583.92,337.29c-48.27,48.27-48.27,126.53,0,174.79,10.81,10.81,23.12,19.18,36.26,25.15l32.03-32.03c-14.44-3.41-28.14-10.74-39.41-22-32.32-32.32-32.32-84.72,0-117.05,27.71-27.71,70.16-31.64,102.08-11.84l29.41-29.41c-48.36-35.46-116.66-31.33-160.37,12.38Z"/><path class="cls-4" d="M772.82,354.13l-29.59,29.59c3.95,6.92,6.82,14.29,8.61,21.86l32.03-32.03c-3.05-6.72-6.73-13.23-11.04-19.42Z"/><path class="cls-3" d="M897.1,36.56c-48.69,48.69-48.69,127.63,0,176.32,8.22,8.22,17.3,15.04,26.95,20.49l35.46-35.46c-10.63-3.73-20.6-9.84-29.1-18.34-30.29-30.29-30.29-79.4,0-109.7,7.95-7.95,17.2-13.79,27.07-17.57l-7.12-42.45h-13.62c-14.4,6.08-27.9,14.97-39.63,26.71Z"/><path class="cls-3" d="M996.57,47.98c15.93,2.34,31.28,9.63,43.54,21.89,8.5,8.5,14.61,18.47,18.34,29.1l35.46-35.46c-5.44-9.65-12.27-18.73-20.49-26.95-11.73-11.73-25.22-20.63-39.62-26.71h-42.65l5.42,38.13Z"/><polygon class="cls-3" points="650.77 802.04 524.91 676.18 491.93 709.17 617.79 835.02 650.77 802.04"/><polygon class="cls-3" points="567.54 822.91 439.89 761.21 426.88 774.22 552.73 900.08 587.97 864.84 567.54 822.91"/><polygon class="cls-3" points="729.44 487.56 709.11 507.89 790.91 549.03 835.73 571.57 852.09 600.72 885.32 567.48 870.1 536.24 742.45 474.55 729.44 487.56"/><path class="cls-4" d="M325.67,890.94c-48.27,48.27-48.27,126.53,0,174.79,10.81,10.81,23.12,19.18,36.26,25.15l32.03-32.03c-14.44-3.41-28.14-10.74-39.41-22-32.32-32.32-32.32-84.72,0-117.05,27.71-27.71,70.16-31.64,102.08-11.84l29.41-29.41c-48.36-35.46-116.66-31.33-160.37,12.38Z"/><path class="cls-4" d="M484.97,937.37c3.95,6.92,6.82,14.29,8.61,21.86l32.03-32.03c-3.05-6.72-6.73-13.23-11.04-19.42l-29.59,29.59Z"/><path class="cls-3" d="M701.26,751.55c-10.63-3.73-20.6-9.84-29.1-18.34-30.29-30.29-30.29-79.4,0-109.7,7.95-7.95,17.2-13.79,27.07-17.57l-7.9-47.07c-19.21,5.72-37.31,16.16-52.48,31.33-48.69,48.69-48.69,127.63,0,176.32,8.22,8.22,17.3,15.04,26.95,20.49l35.46-35.46Z"/><path class="cls-3" d="M781.85,623.52c8.5,8.5,14.61,18.47,18.34,29.1l35.46-35.46c-5.44-9.65-12.27-18.73-20.49-26.95-23.2-23.2-53.26-35.33-83.65-36.43l6.8,47.85c15.93,2.34,31.28,9.63,43.54,21.89Z"/><polygon class="cls-3" points="1038.44 155.88 1164.3 281.73 1197.28 248.75 1071.43 122.9 1038.44 155.88"/><polygon class="cls-3" points="973.39 220.93 1099.24 346.79 1134.48 311.55 1114.05 269.62 986.4 207.93 973.39 220.93"/><polygon class="cls-3" points="1382.24 18.28 1398.6 47.43 1431.84 14.2 1429.72 9.85 1365.49 9.85 1382.24 18.28"/><path class="cls-4" d="M872.18,337.65c-48.27,48.27-48.27,126.53,0,174.79,10.81,10.81,23.12,19.18,36.26,25.15l32.03-32.03c-14.44-3.41-28.14-10.74-39.41-22-32.32-32.32-32.32-84.72,0-117.05,27.71-27.71,70.16-31.64,102.08-11.84l29.41-29.41c-48.36-35.46-116.66-31.33-160.37,12.38Z"/><path class="cls-4" d="M1061.08,354.49l-29.59,29.59c3.95,6.92,6.82,14.29,8.61,21.86l32.03-32.03c-3.05-6.72-6.73-13.23-11.04-19.42Z"/><path class="cls-3" d="M1185.36,36.91c-48.69,48.69-48.69,127.63,0,176.32,8.22,8.22,17.3,15.04,26.95,20.49l35.46-35.46c-10.63-3.73-20.6-9.84-29.1-18.34-30.29-30.29-30.29-79.4,0-109.7,7.95-7.95,17.2-13.79,27.07-17.57l-7.18-42.81h-12.71c-14.72,6.08-28.52,15.1-40.49,27.06Z"/><path class="cls-3" d="M1284.83,48.34c15.93,2.34,31.28,9.63,43.54,21.89,8.5,8.5,14.61,18.47,18.34,29.1l35.46-35.46c-5.44-9.65-12.27-18.73-20.49-26.95-11.96-11.96-25.76-20.98-40.48-27.06h-41.84l5.47,38.48Z"/><polygon class="cls-3" points="934.77 802.04 808.91 676.18 775.93 709.17 901.79 835.02 934.77 802.04"/><polygon class="cls-3" points="851.54 822.91 723.89 761.21 710.88 774.22 836.73 900.08 871.97 864.84 851.54 822.91"/><polygon class="cls-3" points="1013.44 487.56 993.11 507.89 1074.91 549.03 1119.73 571.57 1136.09 600.72 1169.32 567.48 1154.1 536.24 1026.45 474.55 1013.44 487.56"/><path class="cls-4" d="M609.67,890.94c-48.27,48.27-48.27,126.53,0,174.79,10.81,10.81,23.12,19.18,36.26,25.15l32.03-32.03c-14.44-3.41-28.14-10.74-39.41-22-32.32-32.32-32.32-84.72,0-117.05,27.71-27.71,70.16-31.64,102.08-11.84l29.41-29.41c-48.36-35.46-116.66-31.33-160.37,12.38Z"/><path class="cls-4" d="M768.97,937.37c3.95,6.92,6.82,14.29,8.61,21.86l32.03-32.03c-3.05-6.72-6.73-13.23-11.04-19.42l-29.59,29.59Z"/><path class="cls-3" d="M985.26,751.55c-10.63-3.73-20.6-9.84-29.1-18.34-30.29-30.29-30.29-79.4,0-109.7,7.95-7.95,17.2-13.79,27.07-17.57l-7.9-47.07c-19.21,5.72-37.31,16.16-52.48,31.33-48.69,48.69-48.69,127.63,0,176.32,8.22,8.22,17.3,15.04,26.95,20.49l35.46-35.46Z"/><path class="cls-3" d="M1065.85,623.52c8.5,8.5,14.61,18.47,18.34,29.1l35.46-35.46c-5.44-9.65-12.27-18.73-20.49-26.95-23.2-23.2-53.26-35.33-83.65-36.43l6.8,47.85c15.93,2.34,31.28,9.63,43.54,21.89Z"/><polygon class="cls-3" points="1322.44 155.88 1448.3 281.73 1481.28 248.75 1355.43 122.9 1322.44 155.88"/><polygon class="cls-3" points="1257.39 220.93 1383.24 346.79 1418.48 311.55 1398.05 269.62 1270.4 207.93 1257.39 220.93"/><polygon class="cls-3" points="1666.24 18.28 1682.6 47.43 1715.84 14.2 1713.72 9.85 1649.49 9.85 1666.24 18.28"/><path class="cls-4" d="M1156.18,337.65c-48.27,48.27-48.27,126.53,0,174.79,10.81,10.81,23.12,19.18,36.26,25.15l32.03-32.03c-14.44-3.41-28.14-10.74-39.41-22-32.32-32.32-32.32-84.72,0-117.05,27.71-27.71,70.16-31.64,102.08-11.84l29.41-29.41c-48.36-35.46-116.66-31.33-160.37,12.38Z"/><path class="cls-4" d="M1356.12,373.91c-3.05-6.72-6.73-13.23-11.04-19.42l-29.59,29.59c3.95,6.92,6.82,14.29,8.61,21.86l32.03-32.03Z"/><path class="cls-3" d="M1469.36,36.91c-48.69,48.69-48.69,127.63,0,176.32,8.22,8.22,17.3,15.04,26.95,20.49l35.46-35.46c-10.63-3.73-20.6-9.84-29.1-18.34-30.29-30.29-30.29-79.4,0-109.7,7.95-7.95,17.2-13.79,27.07-17.57l-7.18-42.81h-12.71c-14.72,6.08-28.52,15.1-40.49,27.06Z"/><path class="cls-3" d="M1568.83,48.34c15.93,2.34,31.28,9.63,43.54,21.89,8.5,8.5,14.61,18.47,18.34,29.1l35.46-35.46c-5.44-9.65-12.27-18.73-20.49-26.95-11.96-11.96-25.76-20.98-40.48-27.06h-41.84l5.47,38.48Z"/><polygon class="cls-3" points="1225.77 802.04 1099.91 676.18 1066.93 709.17 1192.79 835.02 1225.77 802.04"/><polygon class="cls-3" points="1142.54 822.91 1014.89 761.21 1001.88 774.22 1127.73 900.08 1162.97 864.84 1142.54 822.91"/><polygon class="cls-3" points="1284.11 507.89 1365.91 549.03 1410.73 571.57 1427.09 600.72 1460.32 567.48 1445.1 536.24 1317.45 474.55 1304.44 487.56 1284.11 507.89"/><path class="cls-4" d="M900.67,890.94c-48.27,48.27-48.27,126.53,0,174.79,10.81,10.81,23.12,19.18,36.26,25.15l32.03-32.03c-14.44-3.41-28.14-10.74-39.41-22-32.32-32.32-32.32-84.72,0-117.05,27.71-27.71,70.16-31.64,102.08-11.84l29.41-29.41c-48.36-35.46-116.66-31.33-160.37,12.38Z"/><path class="cls-4" d="M1059.97,937.37c3.95,6.92,6.82,14.29,8.61,21.86l32.03-32.03c-3.05-6.72-6.73-13.23-11.04-19.42l-29.59,29.59Z"/><path class="cls-3" d="M1276.26,751.55c-10.63-3.73-20.6-9.84-29.1-18.34-30.29-30.29-30.29-79.4,0-109.7,7.95-7.95,17.2-13.79,27.07-17.57l-7.9-47.07c-19.21,5.72-37.31,16.16-52.48,31.33-48.69,48.69-48.69,127.63,0,176.32,8.22,8.22,17.3,15.04,26.95,20.49l35.46-35.46Z"/><path class="cls-3" d="M1356.85,623.52c8.5,8.5,14.61,18.47,18.34,29.1l35.46-35.46c-5.44-9.65-12.27-18.73-20.49-26.95-23.2-23.2-53.26-35.33-83.65-36.43l6.8,47.85c15.93,2.34,31.28,9.63,43.54,21.89Z"/><polygon class="cls-3" points="1613.44 155.88 1739.3 281.73 1772.28 248.75 1646.43 122.9 1613.44 155.88"/><polygon class="cls-3" points="1548.39 220.93 1674.24 346.79 1709.48 311.55 1689.05 269.62 1561.4 207.93 1548.39 220.93"/><path class="cls-4" d="M1447.18,337.65c-48.27,48.27-48.27,126.53,0,174.79,10.81,10.81,23.12,19.18,36.26,25.15l32.03-32.03c-14.44-3.41-28.14-10.74-39.41-22-32.32-32.32-32.32-84.72,0-117.05,27.71-27.71,70.16-31.64,102.08-11.84l29.41-29.41c-48.36-35.46-116.66-31.33-160.37,12.38Z"/><path class="cls-4" d="M1636.08,354.49l-29.59,29.59c3.95,6.92,6.82,14.29,8.61,21.86l32.03-32.03c-3.05-6.72-6.73-13.23-11.04-19.42Z"/><path class="cls-3" d="M1760.36,36.91c-48.69,48.69-48.69,127.63,0,176.32,8.22,8.22,17.3,15.04,26.95,20.49l35.46-35.46c-10.63-3.73-20.6-9.84-29.1-18.34-30.29-30.29-30.29-79.4,0-109.7,7.95-7.95,17.2-13.79,27.07-17.57l-7.18-42.81h-12.71c-14.72,6.08-28.52,15.1-40.49,27.06Z"/><path class="cls-3" d="M1854.36,9.85l5.47,38.48c15.93,2.34,31.28,9.63,43.54,21.89,7.98,7.98,13.82,17.27,17.6,27.17l-.05-73.85c-7.8-5.57-16.1-10.14-24.71-13.7h-41.84Z"/><polygon class="cls-3" points="1505.77 802.04 1379.91 676.18 1346.93 709.17 1472.79 835.02 1505.77 802.04"/><polygon class="cls-3" points="1422.54 822.91 1294.89 761.21 1281.88 774.22 1407.73 900.08 1442.97 864.84 1422.54 822.91"/><polygon class="cls-3" points="1584.44 487.56 1564.11 507.89 1645.91 549.03 1690.73 571.57 1707.09 600.72 1740.32 567.48 1725.1 536.24 1597.45 474.55 1584.44 487.56"/><path class="cls-4" d="M1180.67,890.94c-48.27,48.27-48.27,126.53,0,174.79,10.81,10.81,23.12,19.18,36.26,25.15l32.03-32.03c-14.44-3.41-28.14-10.74-39.41-22-32.32-32.32-32.32-84.72,0-117.05,27.71-27.71,70.16-31.64,102.08-11.84l29.41-29.41c-48.36-35.46-116.66-31.33-160.37,12.38Z"/><path class="cls-4" d="M1339.97,937.37c3.95,6.92,6.82,14.29,8.61,21.86l32.03-32.03c-3.05-6.72-6.73-13.23-11.04-19.42l-29.59,29.59Z"/><path class="cls-3" d="M1556.26,751.55c-10.63-3.73-20.6-9.84-29.1-18.34-30.29-30.29-30.29-79.4,0-109.7,7.95-7.95,17.2-13.79,27.07-17.57l-7.9-47.07c-19.21,5.72-37.31,16.16-52.48,31.33-48.69,48.69-48.69,127.63,0,176.32,8.22,8.22,17.3,15.04,26.95,20.49l35.46-35.46Z"/><path class="cls-3" d="M1636.85,623.52c8.5,8.5,14.61,18.47,18.34,29.1l35.46-35.46c-5.44-9.65-12.27-18.73-20.49-26.95-23.2-23.2-53.26-35.33-83.65-36.43l6.8,47.85c15.93,2.34,31.28,9.63,43.54,21.89Z"/><polygon class="cls-3" points="1921.03 183.46 1920.99 128.33 1893.44 155.88 1921.03 183.46"/><polygon class="cls-3" points="1828.39 220.93 1921.12 313.66 1921.07 246.43 1841.4 207.93 1828.39 220.93"/><path class="cls-4" d="M1887.55,325.27c-48.36-35.46-116.66-31.33-160.37,12.38-48.27,48.27-48.27,126.53,0,174.79,10.81,10.81,23.12,19.18,36.26,25.15l32.03-32.03c-14.44-3.41-28.14-10.74-39.41-22-32.32-32.32-32.32-84.72,0-117.05,27.71-27.71,70.16-31.64,102.08-11.84l29.41-29.41Z"/><path class="cls-4" d="M1886.49,384.08c3.95,6.92,6.82,14.29,8.61,21.86l26.07-26.07v-17.45c-1.59-2.69-3.28-5.34-5.08-7.93l-29.59,29.59Z"/><polygon class="cls-3" points="1773.77 802.04 1647.91 676.18 1614.93 709.17 1740.79 835.02 1773.77 802.04"/><polygon class="cls-3" points="1690.54 822.91 1562.89 761.21 1549.88 774.22 1675.73 900.08 1710.97 864.84 1690.54 822.91"/><polygon class="cls-3" points="1852.44 487.56 1832.11 507.89 1913.91 549.03 1921.29 552.74 1921.25 501.52 1865.45 474.55 1852.44 487.56"/><path class="cls-4" d="M1448.67,890.94c-48.27,48.27-48.27,126.53,0,174.79,10.81,10.81,23.12,19.18,36.26,25.15l32.03-32.03c-14.44-3.41-28.14-10.74-39.41-22-32.32-32.32-32.32-84.72,0-117.05,27.71-27.71,70.16-31.64,102.08-11.84l29.41-29.41c-48.36-35.46-116.66-31.33-160.37,12.38Z"/><path class="cls-4" d="M1607.97,937.37c3.95,6.92,6.82,14.29,8.61,21.86l32.03-32.03c-3.05-6.72-6.73-13.23-11.04-19.42l-29.59,29.59Z"/><path class="cls-3" d="M1824.26,751.55c-10.63-3.73-20.6-9.84-29.1-18.34-30.29-30.29-30.29-79.4,0-109.7,7.95-7.95,17.2-13.79,27.07-17.57l-7.9-47.07c-19.21,5.72-37.31,16.16-52.48,31.33-48.69,48.69-48.69,127.63,0,176.32,8.22,8.22,17.3,15.04,26.95,20.49l35.46-35.46Z"/><path class="cls-3" d="M1861.32,601.63c15.93,2.34,31.28,9.63,43.54,21.89,7.23,7.23,12.72,15.55,16.5,24.42l-.05-71.87c-20.06-14.02-43.33-21.45-66.79-22.29l6.8,47.85Z"/><polygon class="cls-3" points="1921.41 727.5 1921.38 690.86 1903.08 709.17 1921.41 727.5"/><polygon class="cls-3" points="1838.02 774.22 1921.5 857.7 1921.46 795.25 1851.03 761.21 1838.02 774.22"/><path class="cls-4" d="M1736.81,890.94c-48.27,48.27-48.27,126.53,0,174.79,10.81,10.81,23.12,19.18,36.26,25.15l32.03-32.03c-14.44-3.41-28.14-10.74-39.41-22-32.32-32.32-32.32-84.72,0-117.05,27.71-27.71,70.16-31.64,102.08-11.84l29.41-29.41c-48.36-35.46-116.66-31.33-160.37,12.38Z"/><path class="cls-4" d="M1904.73,959.22l16.83-16.83-.02-30.44-25.42,25.42c3.95,6.92,6.82,14.29,8.61,21.86Z"/><polygon class="cls-3" points="56.59 835.02 89.57 802.04 .67 713.13 .67 779.1 56.59 835.02"/><polygon class="cls-3" points="26.77 864.84 6.34 822.91 .67 820.16 .67 890.94 26.77 864.84"/><polygon class="cls-3" points="168.25 487.56 147.92 507.89 229.72 549.03 274.54 571.57 290.89 600.72 324.13 567.48 308.91 536.24 181.26 474.55 168.25 487.56"/><path class="cls-3" d="M77.65,766.53c8.22,8.22,17.3,15.04,26.95,20.49l35.46-35.46c-10.63-3.73-20.6-9.84-29.1-18.34-30.29-30.29-30.29-79.4,0-109.7,7.95-7.95,17.2-13.79,27.07-17.57l-7.9-47.07c-19.21,5.72-37.31,16.16-52.48,31.33-48.69,48.69-48.69,127.63,0,176.32Z"/><path class="cls-3" d="M220.66,623.52c8.5,8.5,14.61,18.47,18.34,29.1l35.46-35.46c-5.44-9.65-12.27-18.73-20.49-26.95-23.2-23.2-53.26-35.33-83.65-36.43l6.8,47.85c15.93,2.34,31.28,9.63,43.54,21.89Z"/><polygon class="cls-3" points="477.25 155.88 603.1 281.73 636.08 248.75 510.23 122.9 477.25 155.88"/><polygon class="cls-3" points="412.2 220.93 538.05 346.79 573.28 311.55 552.86 269.62 425.21 207.93 412.2 220.93"/><polygon class="cls-3" points="821.05 18.28 837.41 47.43 870.64 14.2 868.53 9.85 804.29 9.85 821.05 18.28"/><path class="cls-4" d="M310.98,337.65c-48.27,48.27-48.27,126.53,0,174.79,10.81,10.81,23.12,19.18,36.26,25.15l32.03-32.03c-14.44-3.41-28.14-10.74-39.41-22-32.32-32.32-32.32-84.72,0-117.05,27.71-27.71,70.16-31.64,102.08-11.84l29.41-29.41c-48.36-35.46-116.66-31.33-160.37,12.38Z"/><path class="cls-4" d="M499.89,354.49l-29.59,29.59c3.95,6.92,6.82,14.29,8.61,21.86l32.03-32.03c-3.05-6.72-6.73-13.23-11.04-19.42Z"/><path class="cls-3" d="M624.16,36.91c-48.69,48.69-48.69,127.63,0,176.32,8.22,8.22,17.3,15.04,26.95,20.49l35.46-35.46c-10.63-3.73-20.6-9.84-29.1-18.34-30.29-30.29-30.29-79.4,0-109.7,7.95-7.95,17.2-13.79,27.07-17.57l-7.18-42.81h-12.71c-14.72,6.08-28.52,15.1-40.49,27.06Z"/><path class="cls-3" d="M723.63,48.34c15.93,2.34,31.28,9.63,43.54,21.89,8.5,8.5,14.61,18.47,18.34,29.1l35.46-35.46c-5.44-9.65-12.27-18.73-20.49-26.95-11.96-11.96-25.76-20.98-40.48-27.06h-41.84l5.47,38.48Z"/><polygon class="cls-3" points="1.54 553.57 17.89 582.72 51.13 549.48 35.91 518.24 .67 501.21 .67 553.13 1.54 553.57"/><path class="cls-3" d="M1.46,599.15c-.26-.45-.53-.9-.79-1.35v2.14l.79-.79Z"/><polygon class="cls-3" points="204.25 137.88 330.1 263.73 363.08 230.75 237.23 104.9 204.25 137.88"/><polygon class="cls-3" points="139.2 202.93 265.05 328.79 300.28 293.55 279.86 251.62 152.21 189.93 139.2 202.93"/><polygon class="cls-3" points="564.41 29.43 583.98 9.85 553.42 9.85 564.41 29.43"/><path class="cls-4" d="M37.98,319.65c-48.27,48.27-48.27,126.53,0,174.79,10.81,10.81,23.12,19.18,36.26,25.15l32.03-32.03c-14.44-3.41-28.14-10.74-39.41-22-32.32-32.32-32.32-84.72,0-117.05,27.71-27.71,70.16-31.64,102.08-11.84l29.41-29.41c-48.36-35.46-116.66-31.33-160.37,12.38Z"/><path class="cls-4" d="M226.89,336.49l-29.59,29.59c3.95,6.92,6.82,14.29,8.61,21.86l32.03-32.03c-3.05-6.72-6.73-13.23-11.04-19.42Z"/><path class="cls-3" d="M351.16,18.91c-48.69,48.69-48.69,127.63,0,176.32,8.22,8.22,17.3,15.04,26.95,20.49l35.46-35.46c-10.63-3.73-20.6-9.84-29.1-18.34-30.29-30.29-30.29-79.4,0-109.7,7.95-7.95,17.2-13.79,27.07-17.57l-4.16-24.81h-46.1c-3.49,2.81-6.87,5.82-10.11,9.06Z"/><path class="cls-3" d="M450.63,30.34c15.93,2.34,31.28,9.63,43.54,21.89,8.5,8.5,14.61,18.47,18.34,29.1l35.46-35.46c-5.44-9.65-12.27-18.73-20.49-26.95-3.24-3.24-6.62-6.25-10.1-9.06h-69.66l2.91,20.48Z"/><polygon class="cls-3" points="40.62 263.73 73.6 230.75 .67 157.82 .67 223.78 40.62 263.73"/><polygon class="cls-3" points="10.8 293.55 .67 272.75 .67 303.68 10.8 293.55"/><polygon class="cls-3" points="274.92 29.43 294.49 9.85 263.93 9.85 274.92 29.43"/><path class="cls-3" d="M61.67,18.91c-48.69,48.69-48.69,127.63,0,176.32,8.22,8.22,17.3,15.04,26.95,20.49l35.46-35.46c-10.63-3.73-20.6-9.84-29.1-18.34-30.29-30.29-30.29-79.4,0-109.7,7.95-7.95,17.2-13.79,27.07-17.57l-4.16-24.81h-46.1c-3.49,2.81-6.87,5.82-10.11,9.06Z"/><path class="cls-3" d="M161.15,30.34c15.93,2.34,31.28,9.63,43.54,21.89,8.5,8.5,14.61,18.47,18.34,29.1l35.46-35.46c-5.44-9.65-12.27-18.73-20.49-26.95-3.24-3.24-6.62-6.25-10.1-9.06h-69.66l2.91,20.48Z"/></g></svg>