<?xml version="1.0" encoding="UTF-8"?>
<svg id="Calque_1" data-name="Calque 1" xmlns="http://www.w3.org/2000/svg" xmlns:xlink="http://www.w3.org/1999/xlink" viewBox="0 0 1134.53 1030.73">
  <defs>
    <style>
      .cls-1 {
        fill: #fff;
      }

      .cls-2 {
        fill: none;
      }

      .cls-3 {
        fill: url(#_0_10_ppp);
        stroke: #fff;
        stroke-miterlimit: 10;
        stroke-width: 8.12px;
      }
    </style>
    <pattern id="_0_10_ppp" data-name=" 0   10 ppp" x="0" y="0" width="28.8" height="28.8" patternTransform="translate(-315.49 -15496.48) scale(1 -1)" patternUnits="userSpaceOnUse" viewBox="0 0 28.8 28.8">
      <g>
        <rect class="cls-2" width="28.8" height="28.8"/>
        <g>
          <rect class="cls-2" width="28.8" height="28.8"/>
          <g>
            <path class="cls-1" d="M28.8-2.16c1.19,0,2.16,.97,2.16,2.16s-.97,2.16-2.16,2.16-2.16-.97-2.16-2.16,.97-2.16,2.16-2.16Z"/>
            <path class="cls-1" d="M14.4-2.16c1.19,0,2.16,.97,2.16,2.16s-.97,2.16-2.16,2.16-2.16-.97-2.16-2.16,.97-2.16,2.16-2.16Z"/>
            <path class="cls-1" d="M28.8,12.24c1.19,0,2.16,.97,2.16,2.16s-.97,2.16-2.16,2.16-2.16-.97-2.16-2.16,.97-2.16,2.16-2.16Z"/>
            <path class="cls-1" d="M14.4,12.24c1.19,0,2.16,.97,2.16,2.16s-.97,2.16-2.16,2.16-2.16-.97-2.16-2.16,.97-2.16,2.16-2.16Z"/>
            <path class="cls-1" d="M7.2,5.04c1.19,0,2.16,.97,2.16,2.16s-.97,2.16-2.16,2.16-2.16-.97-2.16-2.16,.97-2.16,2.16-2.16Z"/>
            <path class="cls-1" d="M21.6,5.04c1.19,0,2.16,.97,2.16,2.16s-.97,2.16-2.16,2.16-2.16-.97-2.16-2.16,.97-2.16,2.16-2.16Z"/>
            <path class="cls-1" d="M7.2,19.44c1.19,0,2.16,.97,2.16,2.16s-.97,2.16-2.16,2.16-2.16-.97-2.16-2.16,.97-2.16,2.16-2.16Z"/>
            <path class="cls-1" d="M21.6,19.44c1.19,0,2.16,.97,2.16,2.16s-.97,2.16-2.16,2.16-2.16-.97-2.16-2.16,.97-2.16,2.16-2.16Z"/>
          </g>
          <g>
            <path class="cls-1" d="M0-2.16c1.19,0,2.16,.97,2.16,2.16S1.19,2.16,0,2.16-2.16,1.19-2.16,0-1.19-2.16,0-2.16Z"/>
            <path class="cls-1" d="M0,12.24c1.19,0,2.16,.97,2.16,2.16s-.97,2.16-2.16,2.16-2.16-.97-2.16-2.16,.97-2.16,2.16-2.16Z"/>
          </g>
          <g>
            <path class="cls-1" d="M28.8,26.64c1.19,0,2.16,.97,2.16,2.16s-.97,2.16-2.16,2.16-2.16-.97-2.16-2.16,.97-2.16,2.16-2.16Z"/>
            <path class="cls-1" d="M14.4,26.64c1.19,0,2.16,.97,2.16,2.16s-.97,2.16-2.16,2.16-2.16-.97-2.16-2.16,.97-2.16,2.16-2.16Z"/>
          </g>
          <path class="cls-1" d="M0,26.64c1.19,0,2.16,.97,2.16,2.16s-.97,2.16-2.16,2.16-2.16-.97-2.16-2.16,.97-2.16,2.16-2.16Z"/>
        </g>
      </g>
    </pattern>
  </defs>
  <path class="cls-3" d="M567.17,297.29l.53-50.69h-.33l.75-189.73h-65.91l-4.27,189.73h-1.89l-1.12,107.8c-17.72,8.87-37.71,13.88-58.87,13.88s-41.59-5.12-59.46-14.17V4.06h-71.64V297.27c-.47,4.5-.72,9.07-.72,13.7,0,72.8,59.02,131.82,131.82,131.82,20.85,0,40.57-4.85,58.1-13.47l-4.36,421.11h71.64l5.42-522.95c.68-5.41,1.03-10.92,1.03-16.51,0-4.62-.25-9.18-.71-13.68h-.01Z"/>
  <path class="cls-3" d="M433.91,602.56c0-101.42-71.2-186.2-166.34-207.11l-.34-342.87h-58.75l.09,248.47H63.17V87.08H4.06V500.82H63.17v-152.49H208.57v42.58c-7.63,.48-15.15,1.35-22.54,2.61V1023.14c12.54,2.31,25.47,3.53,38.69,3.53,9.89,0,19.62-.69,29.15-2,103.32-14.21,182.91-102.83,182.91-210.06,0-39.66-10.9-76.76-29.84-108.51,17.17-30.63,26.98-65.94,26.98-103.55h-.01Zm-72.77,159.86c8.03,15.66,12.59,33.4,12.59,52.21,0,63.31-51.32,114.63-114.63,114.63-1.51,0-3.01-.06-4.51-.11l.89-117.2,.67-87.66,.18-24.22,.72-95.02,.79-104.21h9.81l-.02-16.29c59.73,7.07,106.07,57.82,106.07,119.45,0,17.78-3.89,34.64-10.8,49.82-11.25,24.69-30.58,44.89-54.62,57.26,22.76,10.83,41.36,28.95,52.84,51.34h.02Z"/>
  <path class="cls-3" d="M1127,685.67c-.18,.95-.36,1.91-.56,2.85,2.5-12.03,3.82-24.49,3.82-37.25,0-58.92-28.01-111.29-71.43-144.54-30.64-23.47-68.96-37.43-110.54-37.43-28.15,0-54.8,6.39-78.6,17.81v-64.14h-23.21l.12-12.04,3.29-317.22h-71.64l-.28,27c-19.8-16.86-44.11-26.8-70.4-26.8-66.47,0-120.36,63.51-120.36,141.85,0,34.08,10.2,65.35,27.2,89.81,11.07,15.92,25.01,28.96,40.9,38,15.81,8.99,33.53,14.04,52.26,14.04s36.46-5.04,52.26-14.04c5.49-3.12,10.75-6.73,15.74-10.77l-.29,27.83c8.81,13.04,13.96,28.76,13.96,45.68s-5.53,33.73-14.92,47.04c-14.79,20.94-39.16,34.64-66.75,34.64-10.61,0-20.74-2.05-30.05-5.73h45.81v-72.93h-71.64v56.52c-15.87-14.9-25.79-36.05-25.79-59.53,0-8.47,1.32-16.62,3.71-24.3l-51.53-25.76c-7.03,16.72-10.92,35.08-10.92,54.36,0,57.69,34.79,107.24,84.54,128.85v386.97h71.64v-376.29c17.95-2.01,34.89-7.39,50.14-15.51,8.79-4.68,17.02-10.28,24.57-16.66v315.77h71.64v-292.13c23.79-11.41,80.54-14.94,108.69-14.94,41.58,0,49.81,11.09,80.45,34.56v284.99h71.64v-180.46l-3.48-.09h.01Zm-417.99-361.1c-40.36,0-73.07-37.85-73.07-84.54s32.72-84.54,73.07-84.54,73.07,37.85,73.07,84.54-32.72,84.54-73.07,84.54Z"/>
  <path class="cls-3" d="M1004.18,463.57c69.64,0,126.09-62.23,126.09-138.98s-56.45-138.98-126.09-138.98-126.09,62.23-126.09,138.98,56.45,138.98,126.09,138.98h0Zm0-222.38c41.78,0,75.65,37.34,75.65,83.39s-33.87,83.39-75.65,83.39-75.65-37.34-75.65-83.39,33.87-83.39,75.65-83.39h0Z"/>
</svg>