<?xml version="1.0" encoding="UTF-8"?>
<svg id="Calque_1" data-name="Calque 1" xmlns="http://www.w3.org/2000/svg" viewBox="0 0 535.68 535.41">
  <defs>
    <style>
      .cls-1 {
        fill: #ece9ff;
        fill-rule: evenodd;
      }
    </style>
  </defs>
  <path class="cls-1" d="M35.02,0C25.54,0,16.48,3.82,9.88,10.63,3.28,17.43-.28,26.6,.02,36.07c.01,.27,.02,.53,.05,.8,5.57,56.15,32.13,199.49,165.69,333.05,133.57,133.58,276.95,160.14,333.12,165.43,.25,.02,.49,.05,.74,.05,9.39,.29,18.5-3.25,25.26-9.79,6.74-6.55,10.55-15.54,10.55-24.95,.25-29.16,.25-77.31,.25-101.24,0-13.25-7.49-25.38-19.34-31.3l-90.12-45.06c-12.43-6.21-27.37-4.49-38.05,4.41l-49.06,40.88c-2.78,2.32-6.46,3.21-9.98,2.44-19.26-6.5-59.71-23.55-100.19-64.04-39.67-39.67-59.79-79.32-68.18-99.25-1.39-4.12-.47-8.51,2.37-11.6,.02-.02,.05-.06,.07-.08,11.57-12.85,31.32-34.41,43.57-47.78,9.8-10.68,12-26.32,5.51-39.29L167.56,19.35C161.64,7.49,149.51,0,136.26,0H35.02Zm-.01,23.33h101.25c4.42,0,8.46,2.5,10.43,6.45l44.71,89.4c2.16,4.33,1.43,9.54-1.83,13.1-12.3,13.41-32.1,35.02-43.71,47.93-8.71,9.55-11.42,23.16-7.01,35.31,.06,.19,.13,.36,.2,.54,8.9,21.25,30.44,64.23,73.4,107.18,44.45,44.45,88.93,62.86,109.6,69.79,.25,.08,.51,.16,.77,.23,10.93,2.85,22.56,.25,31.24-7,0,.01,49.05-40.87,49.05-40.87,3.57-2.98,8.54-3.55,12.69-1.48l90.11,45.07c3.96,1.97,6.45,6.01,6.45,10.43,0,23.88,0,71.94-.26,101.15v.09c0,3.09-1.25,6.05-3.46,8.2-2.11,2.04-4.93,3.2-7.86,3.22-54.19-5.17-190.94-31.1-318.5-158.66C54.78,225.94,28.8,89.29,23.35,35.13c-.01-3.18,1.17-6.08,3.28-8.25,2.2-2.27,5.23-3.55,8.38-3.55h0Z"/>
  <path class="cls-1" d="M267.35,210c32.19,0,58.33,26.14,58.33,58.33,0,6.44,5.23,11.67,11.67,11.67s11.67-5.23,11.67-11.67c0-45.07-36.59-81.67-81.67-81.67-6.44,0-11.67,5.23-11.67,11.67s5.23,11.67,11.67,11.67h0Z"/>
  <path class="cls-1" d="M267.84,139.99c70.48,0,127.71,57.22,127.71,127.71,0,6.45,5.23,11.67,11.67,11.67s11.66-5.23,11.66-11.67c0-83.36-67.68-151.03-151.04-151.03-6.44,0-11.66,5.23-11.66,11.66s5.23,11.66,11.66,11.66h0Z"/>
  <path class="cls-1" d="M267.84,70c109.12,0,197.71,88.59,197.71,197.7,0,6.44,5.23,11.67,11.67,11.67s11.67-5.23,11.67-11.67c0-121.99-99.05-221.04-221.05-221.04-6.44,0-11.67,5.23-11.67,11.67s5.23,11.67,11.67,11.67h0Z"/>
</svg>