<svg xmlns="http://www.w3.org/2000/svg" viewBox="0 0 38.79 38.53" style="enable-background:new 0 0 38.79 38.53" xml:space="preserve"><path style="fill:#fff" d="m30.03 26.68-5.07-.45c-.02 0-.04-.01-.06-.02.38-.24.7-.57.92-.96.22-.39.33-.82.33-1.27v-.05a9.122 9.122 0 0 0 3.45-5.92c.57-.12 1.1-.41 1.49-.83.39-.42.64-.96.69-1.53.06-.57-.07-1.14-.37-1.63s-.75-.88-1.29-1.1c.06-.17.09-.34.1-.52V8.92c0-.39-.15-.76-.42-1.05-.27-.29-.63-.47-1.03-.51v-.2c0-1.9-.78-3.72-2.16-5.06A7.432 7.432 0 0 0 21.42 0h-4.05c-1.95 0-3.82.76-5.2 2.1a7.055 7.055 0 0 0-2.16 5.06v.2c-.39.04-.76.22-1.03.51-.26.29-.41.66-.41 1.05v3.49c0 .18.03.35.1.52-.54.22-.99.61-1.29 1.1-.3.49-.43 1.06-.37 1.63.06.57.3 1.1.69 1.53.39.42.91.72 1.49.83.33 2.33 1.57 4.45 3.45 5.92v.05c0 .44.11.88.33 1.27s.53.72.91.96c-.02 0-.04.01-.06.02l-5.07.45C4.01 26.7 0 30.77 0 35.59v2.3c0 .17.07.33.19.45s.29.19.46.19c.17 0 .34-.07.46-.19s.19-.28.19-.45v-2.3c0-4.14 3.42-7.63 7.47-7.63h.06l.11-.01v7.42h-.93v-1.24c0-.17-.07-.33-.19-.45a.66.66 0 0 0-.46-.19.66.66 0 0 0-.46.19c-.13.12-.2.28-.2.45v3.76c0 .17.07.33.19.45s.29.19.46.19c.17 0 .34-.07.46-.19s.19-.28.19-.45v-1.24h5.57v1.23c0 .17.07.33.19.45s.29.19.46.19.34-.07.46-.19.19-.28.19-.45v-1.87c0-.17-.07-.33-.19-.45a.66.66 0 0 0-.46-.19h-1.24v-7.78l.98-.09c.02 0 .03 0 .05-.01.14-.02.28-.05.41-.1.61 2.29 2.62 3.93 4.96 3.93s4.35-1.64 4.97-3.93c.14.04.27.07.41.1.02 0 .03 0 .05.01l.98.09v7.78h-1.24a.66.66 0 0 0-.46.19c-.12.12-.19.28-.19.45v1.87c0 .17.07.33.19.45s.29.19.46.19c.17 0 .34-.07.46-.19s.19-.28.19-.45v-1.23h5.57v1.24c0 .17.07.33.19.45s.29.19.46.19c.17 0 .34-.07.46-.19s.19-.28.19-.45v-3.76c0-.17-.07-.33-.19-.45s-.29-.19-.46-.19a.66.66 0 0 0-.46.19c-.12.12-.19.28-.19.45v1.24h-.95v-7.42l.11.01h.06c4.05 0 7.47 3.5 7.47 7.63v2.3c0 .17.07.33.19.45s.29.19.46.19c.17 0 .34-.07.46-.19s.19-.28.19-.45v-2.3c.03-4.82-3.98-8.89-8.73-8.91zm-18.35 8.69h-1.41v-7.54l1.41-.12v7.66zm3.68-26.75v4.09H13.3V8.62h2.06zm3.38 0v4.09h-2.06V8.62h2.06zm3.37 0v4.09h-2.06V8.62h2.06zm3.38 0v4.09h-2.06V8.62h2.06zm2.72 5.37c-.46 1.76-1.88 6.08-4.93 7.35-.18.01-.37.04-.55.08-.42-.45-.94-.82-1.52-1.06-.58-.25-1.2-.38-1.83-.38a4.628 4.628 0 0 0-3.35 1.44c-.18-.05-.36-.07-.55-.08-3.05-1.27-4.47-5.59-4.93-7.35h17.66zm1.48 2.65v-2.49c.24.12.44.29.57.51.14.22.21.47.21.73s-.07.51-.21.73c-.13.22-.33.4-.57.52zm-.78-7.72v3.49c0 .08-.03.16-.09.21a.31.31 0 0 1-.22.09h-1.8V8.62h1.79c.08 0 .16.03.22.09.06.05.1.13.1.21zM17.37 1.28h4.05c1.6 0 3.14.62 4.27 1.73 1.13 1.1 1.77 2.6 1.77 4.16v.18H11.33v-.19c0-1.56.64-3.06 1.77-4.16s2.67-1.72 4.27-1.72zM9.88 8.92c0-.08.03-.16.09-.21a.31.31 0 0 1 .22-.09h1.79v4.09h-1.79a.31.31 0 0 1-.22-.09.288.288 0 0 1-.09-.21V8.92zm-1.57 6.47c0-.26.08-.51.21-.73.14-.22.34-.4.57-.51v2.49c-.24-.12-.43-.3-.57-.52-.14-.22-.21-.47-.21-.73zm5.41 7.75a7.925 7.925 0 0 1-3.27-5.59c.93 1.99 2.41 4.15 4.67 5.03.08.03.16.05.24.05.21 0 .42.05.61.14.14.07.3.08.45.05.15-.04.28-.12.37-.24.3-.4.69-.72 1.14-.95.45-.22.95-.34 1.46-.34s1.01.11 1.46.34c.45.23.84.55 1.14.95.09.12.22.21.37.24.15.04.31.02.45-.05.19-.09.4-.14.61-.14.08 0 .17-.02.24-.05 2.26-.88 3.75-3.03 4.67-5.03a7.77 7.77 0 0 1-1.03 3.13c-.56.96-1.33 1.8-2.24 2.46-.1.07-.17.17-.22.28-.04.11-.06.23-.04.35.04.22.02.45-.05.67-.07.22-.2.41-.37.57-.17.16-.38.27-.61.32-.23.06-.46.06-.69 0a.607.607 0 0 0-.44.05c-.14.07-.25.18-.31.31-.25.55-.67 1.02-1.19 1.35-.52.33-1.13.51-1.75.51-.62 0-1.23-.18-1.75-.51s-.93-.8-1.19-1.35a.587.587 0 0 0-.31-.31.676.676 0 0 0-.44-.05c-.21.05-.42.06-.63.01-.21-.04-.41-.13-.57-.26-.17-.13-.3-.29-.4-.48a1.39 1.39 0 0 1-.14-.6c0-.08.01-.15.02-.23.02-.12.01-.24-.04-.34a.54.54 0 0 0-.22-.29zm5.67 6.91c-1.81 0-3.35-1.34-3.75-3.19.41.6.97 1.09 1.62 1.43s1.38.52 2.13.52c.74 0 1.47-.18 2.13-.52s1.21-.83 1.62-1.43c-.39 1.85-1.93 3.19-3.75 3.19zm9.13 5.32h-1.41V27.7l1.41.12v7.55z"/><path style="fill:#47babd" d="M16.13 16.62c.19 0 .38-.05.53-.16s.28-.25.35-.42c.07-.17.09-.36.05-.54-.04-.18-.13-.35-.26-.48s-.31-.22-.49-.26a.975.975 0 0 0-.56.05c-.18.07-.33.19-.43.35-.11.15-.16.34-.16.52 0 .25.1.49.28.66.19.18.44.28.69.28zM22.66 16.62c.19 0 .38-.05.53-.16.16-.1.28-.25.35-.42.07-.17.09-.36.05-.54a.984.984 0 0 0-.26-.48.975.975 0 0 0-1.05-.21c-.18.07-.33.19-.43.35-.11.15-.16.34-.16.52 0 .25.1.49.28.66.19.18.43.28.69.28zM18.41 18.67l.61.42c.14.09.31.11.48.08s.31-.13.4-.26c.1-.13.14-.3.11-.46a.624.624 0 0 0-.24-.41l-.24-.16.5-1.87c.02-.08.03-.17.02-.25a.614.614 0 0 0-.25-.43.696.696 0 0 0-.23-.11.566.566 0 0 0-.26-.01.62.62 0 0 0-.43.25c-.05.07-.09.15-.11.23l-.61 2.3c-.03.13-.03.26.02.38.03.12.12.23.23.3zM19.39 24.49c.46 0 .91-.18 1.24-.5.33-.32.51-.75.51-1.2 0-.17-.07-.33-.19-.45a.66.66 0 0 0-.46-.19c-.17 0-.34.07-.46.19s-.19.28-.19.45c0 .11-.05.22-.13.29a.43.43 0 0 1-.31.12c-.11 0-.22-.04-.31-.12a.41.41 0 0 1-.13-.29c0-.17-.07-.33-.19-.45s-.29-.19-.46-.19a.66.66 0 0 0-.46.19c-.12.12-.19.28-.19.45 0 .45.19.89.51 1.2.32.32.76.5 1.22.5z"/></svg>