<?xml version="1.0" encoding="UTF-8"?>
<svg width="700pt" height="700pt" version="1.1" viewBox="0 0 700 700" xmlns="http://www.w3.org/2000/svg">
 <path d="m562.8 493.65v12.645c-0.015625 14.238-5.6797 27.887-15.746 37.957-10.07 10.066-23.719 15.73-37.957 15.746h-318.2c-14.238-0.015625-27.887-5.6797-37.953-15.75-10.066-10.066-15.73-23.715-15.75-37.953v-12.645c0.0625-53.676 21.414-105.13 59.367-143.09s89.41-59.305 143.09-59.367h20.695c53.676 0.0625 105.13 21.414 143.09 59.367s59.305 89.41 59.367 143.09zm-212.8-247.25c32.676 0 64.012-12.977 87.117-36.082 23.102-23.105 36.082-54.441 36.082-87.117s-12.98-64.012-36.082-87.113c-23.105-23.105-54.441-36.086-87.117-36.086s-64.012 12.98-87.117 36.086c-23.102 23.102-36.082 54.438-36.082 87.113 0.039063 32.664 13.031 63.977 36.125 87.074 23.098 23.094 54.41 36.086 87.074 36.125z"/>
</svg>
